<svg width="40" height="40" viewBox="0 0 40 40" fill="none" xmlns="http://www.w3.org/2000/svg">
<circle cx="20" cy="20" r="20" fill="url(#paint0_linear_75_2374)"/>
<g clip-path="url(#clip0_75_2374)">
<g filter="url(#filter0_d_75_2374)">
<path d="M22.8744 24.2927C22.8584 24.073 22.8477 23.8529 22.8423 23.6327C25.1789 23.3935 26.8188 22.8334 26.8188 22.1798C26.8124 22.1798 26.8133 22.1523 26.8133 22.1422C25.0661 20.5674 28.3276 9.3822 22.2566 9.6077C21.6783 9.17379 20.9653 8.9582 20.2436 8.99904H20.2509C12.0275 9.62054 15.6639 20.1851 13.7893 22.1789H13.7856C13.793 22.8187 15.377 23.3687 17.6457 23.6144C17.6393 23.7702 17.6256 23.9636 17.5962 24.2872C16.6548 26.8264 10.2977 26.115 10.0044 31H30.4406C30.1481 26.1141 23.8167 26.8255 22.8744 24.2927Z" fill="white"/>
</g>
</g>
<defs>
<filter id="filter0_d_75_2374" x="8.00439" y="8.99414" width="24.436" height="26.0059" filterUnits="userSpaceOnUse" color-interpolation-filters="sRGB">
<feFlood flood-opacity="0" result="BackgroundImageFix"/>
<feColorMatrix in="SourceAlpha" type="matrix" values="0 0 0 0 0 0 0 0 0 0 0 0 0 0 0 0 0 0 127 0" result="hardAlpha"/>
<feOffset dy="2"/>
<feGaussianBlur stdDeviation="1"/>
<feComposite in2="hardAlpha" operator="out"/>
<feColorMatrix type="matrix" values="0 0 0 0 0 0 0 0 0 0 0 0 0 0 0 0 0 0 0.15 0"/>
<feBlend mode="normal" in2="BackgroundImageFix" result="effect1_dropShadow_75_2374"/>
<feBlend mode="normal" in="SourceGraphic" in2="effect1_dropShadow_75_2374" result="shape"/>
</filter>
<linearGradient id="paint0_linear_75_2374" x1="20" y1="-4.8" x2="20" y2="40" gradientUnits="userSpaceOnUse">
<stop stop-color="#00E83A"/>
<stop offset="1" stop-color="#005453"/>
</linearGradient>
<clipPath id="clip0_75_2374">
<rect width="20.174" height="22" fill="white" transform="translate(10 9)"/>
</clipPath>
</defs>
</svg>
