<svg width="30" height="30" viewBox="0 0 30 30" fill="none" xmlns="http://www.w3.org/2000/svg">
<path d="M30 15C30 23.2843 23.2843 30 15 30C6.71573 30 0 23.2843 0 15C0 6.71573 6.71573 0 15 0C23.2843 0 30 6.71573 30 15ZM3.4514 15C3.4514 21.3781 8.62188 26.5486 15 26.5486C21.3781 26.5486 26.5486 21.3781 26.5486 15C26.5486 8.62188 21.3781 3.4514 15 3.4514C8.62188 3.4514 3.4514 8.62188 3.4514 15Z" fill="#D9D9D9"/>
<path d="M5.61496 24.385C4.94031 25.0597 4.93484 26.1626 5.68255 26.7552C7.15503 27.9223 8.83791 28.8057 10.6457 29.3541C13.0063 30.0702 15.507 30.193 17.9264 29.7118C20.3457 29.2305 22.6091 28.1601 24.5159 26.5952C26.4227 25.0303 27.9142 23.0192 28.8582 20.7402C29.8022 18.4613 30.1696 15.9846 29.9278 13.5297C29.686 11.0749 28.8425 8.71748 27.472 6.66644C26.1016 4.61541 24.2464 2.934 22.0709 1.77118C20.4049 0.880632 18.5902 0.315293 16.7238 0.0993703C15.776 -0.0102728 15 0.773449 15 1.72755C15 2.68164 15.7777 3.44187 16.7211 3.58411C18.0186 3.77973 19.2776 4.19578 20.4422 4.8183C22.1166 5.71328 23.5444 7.00739 24.5992 8.58599C25.654 10.1646 26.3032 11.979 26.4893 13.8684C26.6754 15.7578 26.3927 17.664 25.6661 19.418C24.9396 21.1721 23.7916 22.7199 22.324 23.9243C20.8564 25.1288 19.1144 25.9527 17.2523 26.3231C15.3902 26.6935 13.4655 26.5989 11.6487 26.0478C10.385 25.6644 9.20057 25.0684 8.14477 24.2893C7.37708 23.7227 6.28961 23.7104 5.61496 24.385Z" fill="#E1B003"/>
</svg>
