<svg width="30" height="30" viewBox="0 0 30 30" fill="none" xmlns="http://www.w3.org/2000/svg">
<path d="M30 15C30 23.2843 23.2843 30 15 30C6.71573 30 0 23.2843 0 15C0 6.71573 6.71573 0 15 0C23.2843 0 30 6.71573 30 15ZM3.4514 15C3.4514 21.3781 8.62188 26.5486 15 26.5486C21.3781 26.5486 26.5486 21.3781 26.5486 15C26.5486 8.62188 21.3781 3.4514 15 3.4514C8.62188 3.4514 3.4514 8.62188 3.4514 15Z" fill="#D9D9D9"/>
<path d="M1.72755 15C0.773449 15 -0.0102773 15.776 0.0993644 16.7238C0.371981 19.0804 1.20087 21.3474 2.52796 23.3336C4.17618 25.8003 6.51886 27.7229 9.25975 28.8582C12.0006 29.9935 15.0166 30.2906 17.9264 29.7118C20.8361 29.133 23.5088 27.7044 25.6066 25.6066C27.7044 23.5088 29.133 20.8361 29.7118 17.9264C30.2906 15.0166 29.9935 12.0006 28.8582 9.25975C27.7229 6.51886 25.8003 4.17618 23.3336 2.52796C21.3474 1.20087 19.0804 0.371982 16.7238 0.0993646C15.776 -0.0102771 15 0.773449 15 1.72755C15 2.68164 15.7777 3.44186 16.7211 3.5841C18.393 3.83617 19.9965 4.45361 21.414 5.40076C23.3126 6.66933 24.7923 8.4724 25.6661 10.582C26.5399 12.6915 26.7685 15.0128 26.3231 17.2523C25.8776 19.4918 24.7781 21.5489 23.1635 23.1635C21.5489 24.7781 19.4918 25.8776 17.2523 26.3231C15.0128 26.7685 12.6915 26.5399 10.582 25.6661C8.4724 24.7923 6.66933 23.3126 5.40076 21.414C4.45361 19.9965 3.83617 18.393 3.5841 16.7211C3.44186 15.7777 2.68164 15 1.72755 15Z" fill="#DB3535"/>
</svg>
