<svg width="157" height="157" viewBox="0 0 157 157" fill="none" xmlns="http://www.w3.org/2000/svg">
<path d="M157 78.5C157 121.854 121.854 157 78.5 157C35.1456 157 0 121.854 0 78.5C0 35.1456 35.1456 0 78.5 0C121.854 0 157 35.1456 157 78.5ZM27.4592 78.5C27.4592 106.689 50.3109 129.541 78.5 129.541C106.689 129.541 129.541 106.689 129.541 78.5C129.541 50.3109 106.689 27.4592 78.5 27.4592C50.3109 27.4592 27.4592 50.3109 27.4592 78.5Z" fill="#D9D9D9"/>
<path d="M115.969 16.7603C117.769 13.7952 121.649 12.8305 124.46 14.8611C139.187 25.4957 149.827 40.9582 154.451 58.6583C159.606 78.3914 156.879 99.3562 146.846 117.114C136.814 134.871 120.265 148.027 100.702 153.795C83.1547 158.969 64.4192 157.835 47.7103 150.71C44.5199 149.349 43.3437 145.528 44.9547 142.457L51.8752 129.262C53.4862 126.191 57.273 125.047 60.519 126.269C70.8544 130.16 82.2349 130.612 92.9357 127.457C105.655 123.706 116.416 115.152 122.939 103.607C129.462 92.0607 131.235 78.4294 127.883 65.5989C125.064 54.8049 118.803 45.2906 110.136 38.4458C107.414 36.2961 106.44 32.4624 108.239 29.4973L115.969 16.7603Z" fill="#0087E7"/>
<path d="M6.4595 83.5887C2.99977 83.8331 -0.0293845 81.2237 0.00348357 77.7555C0.130067 64.3986 3.66459 51.2569 10.3189 39.5951C18.0136 26.1102 29.5342 15.2098 43.4239 8.2724C57.3136 1.335 72.9486 -1.32783 88.3516 0.620637C101.672 2.30567 114.302 7.37392 125.057 15.2961C127.849 17.3531 128.116 21.3422 125.842 23.9614L116.075 35.2129C113.802 37.8321 109.853 38.0752 106.975 36.1403C100.389 31.7131 92.8356 28.8658 84.9056 27.8627C74.8904 26.5958 64.7246 28.3272 55.6934 32.8379C46.6623 37.3486 39.1716 44.4361 34.1685 53.204C30.2071 60.1465 27.9461 67.8957 27.5295 75.8204C27.3474 79.284 24.7814 82.2945 21.3216 82.5389L6.4595 83.5887Z" fill="#00EBE7"/>
<path d="M55.231 146.869C54.1135 150.152 50.5331 151.931 47.3495 150.555C33.4204 144.533 21.4898 134.581 13.0591 121.856C4.62837 109.131 0.115846 94.2639 0.00213173 79.0893C-0.0238586 75.6211 3.01046 73.0178 6.4697 73.269L21.3297 74.3481C24.789 74.5994 27.3491 77.6149 27.5243 81.0788C27.9846 90.1786 30.8759 99.0309 35.9502 106.69C41.0245 114.349 48.0489 120.463 56.2489 124.435C59.3703 125.947 61.1489 129.481 60.0314 132.764L55.231 146.869Z" fill="#3AFFAD"/>
</svg>
