<svg width="40" height="40" viewBox="0 0 40 40" fill="none" xmlns="http://www.w3.org/2000/svg">
<circle cx="20" cy="20" r="20" fill="url(#paint0_linear_75_2174)"/>
<g filter="url(#filter0_d_75_2174)">
<path d="M20 20C18.6067 20 17.4139 19.5039 16.4217 18.5117C15.4295 17.5195 14.9334 16.3267 14.9334 14.9334C14.9334 13.54 15.4295 12.3473 16.4217 11.355C17.4139 10.3628 18.6067 9.8667 20 9.8667C21.3934 9.8667 22.5861 10.3628 23.5784 11.355C24.5706 12.3473 25.0667 13.54 25.0667 14.9334C25.0667 16.3267 24.5706 17.5195 23.5784 18.5117C22.5861 19.5039 21.3934 20 20 20ZM9.8667 30.1334V26.5867C9.8667 25.8689 10.0516 25.209 10.4215 24.6069C10.7905 24.0057 11.2811 23.5467 11.8934 23.23C13.2023 22.5756 14.5323 22.0845 15.8834 21.7569C17.2345 21.4301 18.6067 21.2667 20 21.2667C21.3934 21.2667 22.7656 21.4301 24.1167 21.7569C25.4678 22.0845 26.7978 22.5756 28.1067 23.23C28.7189 23.5467 29.2095 24.0057 29.5786 24.6069C29.9484 25.209 30.1334 25.8689 30.1334 26.5867V30.1334H9.8667Z" fill="white"/>
</g>
<defs>
<filter id="filter0_d_75_2174" x="7.8667" y="9.8667" width="24.2666" height="24.2666" filterUnits="userSpaceOnUse" color-interpolation-filters="sRGB">
<feFlood flood-opacity="0" result="BackgroundImageFix"/>
<feColorMatrix in="SourceAlpha" type="matrix" values="0 0 0 0 0 0 0 0 0 0 0 0 0 0 0 0 0 0 127 0" result="hardAlpha"/>
<feOffset dy="2"/>
<feGaussianBlur stdDeviation="1"/>
<feComposite in2="hardAlpha" operator="out"/>
<feColorMatrix type="matrix" values="0 0 0 0 0 0 0 0 0 0 0 0 0 0 0 0 0 0 0.15 0"/>
<feBlend mode="normal" in2="BackgroundImageFix" result="effect1_dropShadow_75_2174"/>
<feBlend mode="normal" in="SourceGraphic" in2="effect1_dropShadow_75_2174" result="shape"/>
</filter>
<linearGradient id="paint0_linear_75_2174" x1="20" y1="-4.8" x2="20" y2="40" gradientUnits="userSpaceOnUse">
<stop stop-color="#A3FFFD"/>
<stop offset="1" stop-color="#0075C8"/>
</linearGradient>
</defs>
</svg>
