<svg width="40" height="40" viewBox="0 0 40 40" fill="none" xmlns="http://www.w3.org/2000/svg">
<circle cx="20" cy="20" r="20" fill="url(#paint0_linear_75_2364)"/>
<g clip-path="url(#clip0_75_2364)">
<g filter="url(#filter0_d_75_2364)">
<path d="M23.1438 24.623C23.0819 23.7831 23.0646 22.9406 23.0918 22.0989L23.0908 22.1359C23.843 21.3561 24.3122 20.3467 24.4233 19.2689L24.4253 19.2479C24.7642 19.2199 25.299 18.89 25.4549 17.5825C25.502 17.3573 25.4842 17.1234 25.4037 16.9079C25.3232 16.6924 25.1833 16.5041 25.0001 16.365L24.9971 16.363C25.5489 14.7036 26.6945 9.56943 22.8769 9.03962C22.484 8.34987 21.4784 8 20.1708 8C14.9397 8.09597 14.309 11.9496 15.4526 16.363C15.2679 16.5034 15.1271 16.6935 15.0465 16.9111C14.966 17.1287 14.9491 17.3647 14.9977 17.5915L14.9967 17.5835C15.1567 18.889 15.6875 19.2209 16.0264 19.2489C16.1452 20.3387 16.6293 21.3561 17.3999 22.1359C17.4252 22.9923 17.4058 23.8495 17.3419 24.7039L17.3469 24.623C16.3092 27.4059 9.32379 26.6242 9.00391 31.9913H31.4537C31.1319 26.6242 24.1784 27.4059 23.1428 24.623H23.1438Z" fill="white"/>
</g>
</g>
<defs>
<filter id="filter0_d_75_2364" x="7.00391" y="8" width="26.4497" height="27.9912" filterUnits="userSpaceOnUse" color-interpolation-filters="sRGB">
<feFlood flood-opacity="0" result="BackgroundImageFix"/>
<feColorMatrix in="SourceAlpha" type="matrix" values="0 0 0 0 0 0 0 0 0 0 0 0 0 0 0 0 0 0 127 0" result="hardAlpha"/>
<feOffset dy="2"/>
<feGaussianBlur stdDeviation="1"/>
<feComposite in2="hardAlpha" operator="out"/>
<feColorMatrix type="matrix" values="0 0 0 0 0 0 0 0 0 0 0 0 0 0 0 0 0 0 0.15 0"/>
<feBlend mode="normal" in2="BackgroundImageFix" result="effect1_dropShadow_75_2364"/>
<feBlend mode="normal" in="SourceGraphic" in2="effect1_dropShadow_75_2364" result="shape"/>
</filter>
<linearGradient id="paint0_linear_75_2364" x1="20" y1="-4.8" x2="20" y2="40" gradientUnits="userSpaceOnUse">
<stop stop-color="#7CFFC8"/>
<stop offset="1" stop-color="#00706E"/>
</linearGradient>
<clipPath id="clip0_75_2364">
<rect width="22" height="23.9913" fill="white" transform="translate(9 8)"/>
</clipPath>
</defs>
</svg>
