<svg width="30" height="30" viewBox="0 0 30 30" fill="none" xmlns="http://www.w3.org/2000/svg">
<path d="M30 15C30 23.2843 23.2843 30 15 30C6.71573 30 0 23.2843 0 15C0 6.71573 6.71573 0 15 0C23.2843 0 30 6.71573 30 15ZM3.4514 15C3.4514 21.3781 8.62188 26.5486 15 26.5486C21.3781 26.5486 26.5486 21.3781 26.5486 15C26.5486 8.62188 21.3781 3.4514 15 3.4514C8.62188 3.4514 3.4514 8.62188 3.4514 15Z" fill="#D9D9D9"/>
<path d="M1.72755 15C0.773449 15 -0.01028 15.776 0.0993598 16.7238C0.396033 19.2884 1.35114 21.7435 2.88484 23.8444C4.75947 26.4123 7.40154 28.3181 10.4297 29.2868C13.4579 30.2555 16.7156 30.237 19.7325 29.2339C22.7495 28.2308 25.3697 26.295 27.215 23.7059C29.0603 21.1169 30.0352 18.0085 29.999 14.8293C29.9628 11.6502 28.9175 8.56473 27.0137 6.01833C25.11 3.47194 22.4464 1.5963 19.4074 0.662119C16.9211 -0.102167 14.2887 -0.203944 11.7676 0.352394C10.836 0.557996 10.3581 1.55203 10.6694 2.45391C10.9808 3.35579 11.964 3.82065 12.9022 3.64728C14.7227 3.31087 16.6064 3.41576 18.3922 3.9647C20.7312 4.6837 22.7813 6.12731 24.2465 8.08717C25.7117 10.047 26.5163 12.4218 26.5442 14.8686C26.572 17.3155 25.8217 19.7079 24.4014 21.7006C22.9812 23.6933 20.9645 25.1832 18.6425 25.9552C16.3204 26.7273 13.8131 26.7416 11.4824 25.996C9.15177 25.2504 7.11827 23.7836 5.67544 21.8072C4.57388 20.2982 3.86012 18.5519 3.5841 16.7212C3.44186 15.7777 2.68164 15 1.72755 15Z" fill="#DB3535"/>
</svg>
