<svg width="30" height="30" viewBox="0 0 30 30" fill="none" xmlns="http://www.w3.org/2000/svg">
<path d="M30 15C30 23.2843 23.2843 30 15 30C6.71573 30 0 23.2843 0 15C0 6.71573 6.71573 0 15 0C23.2843 0 30 6.71573 30 15ZM3.4514 15C3.4514 21.3781 8.62188 26.5486 15 26.5486C21.3781 26.5486 26.5486 21.3781 26.5486 15C26.5486 8.62188 21.3781 3.4514 15 3.4514C8.62188 3.4514 3.4514 8.62188 3.4514 15Z" fill="#D9D9D9"/>
<path d="M5.61496 5.61496C4.94031 4.94031 3.83739 4.93486 3.24474 5.68256C1.41757 7.98774 0.300165 10.7908 0.0523976 13.7473C-0.243683 17.2803 0.721238 20.804 2.77599 23.6933C4.83074 26.5826 7.84248 28.6506 11.2769 29.5306C14.7114 30.4106 18.3465 30.0456 21.5375 28.5004C24.7284 26.9552 27.2689 24.3297 28.7083 21.0896C30.1476 17.8495 30.3927 14.2043 29.4002 10.8007C28.4077 7.39707 26.2416 4.45502 23.2863 2.49648C20.8132 0.857536 17.9212 -0.00403003 14.9797 -1.58765e-05C14.0256 0.00128615 13.346 0.869929 13.4569 1.81756C13.5678 2.76518 14.4287 3.42981 15.3822 3.4614C17.5083 3.53183 19.5858 4.18908 21.3776 5.37654C23.6522 6.88395 25.3193 9.14832 26.0833 11.768C26.8472 14.3876 26.6585 17.1932 25.5507 19.6869C24.4429 22.1807 22.4876 24.2015 20.0316 25.3907C17.5757 26.58 14.7779 26.8609 12.1345 26.1836C9.49114 25.5064 7.17312 23.9146 5.59166 21.6909C4.0102 19.4671 3.26754 16.7551 3.49542 14.0359C3.67493 11.8938 4.44757 9.85639 5.71068 8.14478C6.27721 7.37709 6.28961 6.28961 5.61496 5.61496Z" fill="#649A1D"/>
</svg>
